<?xml version="1.0" encoding="utf-8"?>
<!-- Generator: Adobe Illustrator 23.0.0, SVG Export Plug-In . SVG Version: 6.00 Build 0)  -->
<svg version="1.1" id="Layer_1" xmlns="http://www.w3.org/2000/svg" xmlns:xlink="http://www.w3.org/1999/xlink" x="0px" y="0px"
	 viewBox="0 0 417.82 498.33" style="enable-background:new 0 0 417.82 498.33;" xml:space="preserve">
<style type="text/css">
	.st0{fill:#704B85;}
	.st1{fill:#FBF8FB;}
	.st2{fill:#59AF69;}
	.st3{fill:#75CABD;}
	.st4{fill:#D8AD4D;}
	.st5{fill:#F4847B;}
	.st6{fill:#2B2A2A;}
	.st7{fill:#050606;}
	.st8{fill:#FFFFFF;}
	.st9{fill:#6C4882;}
	.st10{fill:#442C56;}
	.st11{fill:#EE3156;}
	.st12{fill:#E96B8B;}
	.st13{fill:#F2E38A;stroke:#D1BC54;stroke-width:2;stroke-miterlimit:10;}
	.st14{fill:#D1BC54;}
	.st15{fill:#754C29;}
	.st16{fill:#F2E38A;}
	.st17{fill:none;stroke:#EE3156;stroke-width:15;stroke-miterlimit:10;}
	.st18{fill:#EE2B78;}
	.st19{fill:#412463;}
	.st20{fill:none;stroke:#704B85;stroke-width:4;stroke-miterlimit:10;}
	.st21{fill:#4A315B;}
	.st22{fill:#644278;}
	.st23{fill:#F37776;}
	.st24{fill:#67686B;}
	.st25{fill:#4E7F77;}
	.st26{fill:#A58141;}
	.st27{fill:#D84744;}
	.st28{fill:#E37534;}
	.st29{fill:#227139;}
	.st30{fill:#593772;}
	.st31{fill:#F2E38A;stroke:#D1BC54;stroke-width:10;stroke-miterlimit:10;}
	.st32{fill:none;stroke:#D1BC54;stroke-width:10;stroke-miterlimit:10;}
	.st33{fill:#754C29;stroke:#603913;stroke-width:10;stroke-miterlimit:10;}
	.st34{fill:#472360;}
	.st35{opacity:0.5;}
	.st36{fill:#603913;}
	.st37{fill:#F1E9C8;}
	.st38{fill:#5D3C6F;}
	.st39{fill:#533463;}
	.st40{fill:#432752;}
	.st41{opacity:0.2;}
	.st42{fill:#F7F7F7;}
	.st43{fill:none;}
</style>
<g>
	<path class="st0" d="M374.39,319.44c0.87-30.61-16.39-65.26-24.71-98.37c-8.08-32.16-16.15-64.32-24.23-96.48
		c-8.04-32.01-16.81-62.13-51.06-80.54c-30.66-16.48-86.47-18.2-120.36-7.41C81.85,59.6,78.81,151.51,64.75,208.09
		c-8.94,35.97-28.13,70.16-28.14,107.38c0,49.08,26.52,96.45,71.21,125.31c109.39,70.63,262.36-2.47,266.52-120.28"/>
	<path class="st8" d="M205.34,211.87c-27.88,0-53.05-25.86-80.69-16.39c-14.54,4.98-24.55,18.83-26.21,33.79
		c-4.34,39.13,32.14,54.26,65.14,50.13c-22.92,24.19-35.3,57.99-33.34,91.27c2.28,38.63,40.29,59.03,75.89,59.03h-0.8
		c35.6,0,73.62-20.4,75.89-59.03c1.96-33.28-10.43-67.08-33.34-91.27c31.71,3.97,65.31-8.81,65.34-45.38
		c0.01-14.87-7.72-29.24-21.2-36.32c-28.4-14.91-56.84,14.17-85.89,14.17"/>
	<path class="st11" d="M171.58,374.54c20.48,13.36,47.69,12.77,68.1,0c9.26-5.79,0.73-20.51-8.58-14.68
		c-15.57,9.75-35.34,10.18-50.94,0C170.97,353.85,162.44,368.57,171.58,374.54z"/>
	<path class="st0" d="M139.61,231.24c-1.34,0.3-2.55,1.13-3.1,2.39c-4.96,11.25,34.01,40.98,44.05,11.63
		C186.08,229.12,150.16,228.9,139.61,231.24z"/>
	<path class="st0" d="M272.13,231.24c1.34,0.3,2.55,1.13,3.1,2.39c4.96,11.25-34.01,40.98-44.05,11.63
		C225.66,229.12,261.59,228.9,272.13,231.24z"/>
	<path class="st0" d="M205.14,315.77c0.78-5.6-19.53-5.51-22.61-2.95c-8.18,6.79,0.99,16.98,7.03,21.5
		C205.54,346.3,203.58,327.03,205.14,315.77z"/>
	<path class="st0" d="M207.44,315.77c-0.78-5.6,19.53-5.51,22.61-2.95c8.18,6.79-0.99,16.98-7.03,21.5
		C207.04,346.3,209,327.03,207.44,315.77z"/>
</g>
</svg>
